<?xml version="1.0" encoding="UTF-8" standalone="no"?>
<!-- Created with Inkscape (http://www.inkscape.org/) -->

<svg
   width="3840"
   height="2160"
   viewBox="0 0 3840 2160"
   version="1.1"
   id="svg1"
   sodipodi:docname="cta.svg"
   inkscape:version="1.3 (0e150ed, 2023-07-21)"
   inkscape:export-filename="cta.svg"
   inkscape:export-xdpi="96"
   inkscape:export-ydpi="96"
   xmlns:inkscape="http://www.inkscape.org/namespaces/inkscape"
   xmlns:sodipodi="http://sodipodi.sourceforge.net/DTD/sodipodi-0.dtd"
   xmlns="http://www.w3.org/2000/svg"
   xmlns:svg="http://www.w3.org/2000/svg">
  <sodipodi:namedview
     id="namedview1"
     pagecolor="#ffffff"
     bordercolor="#000000"
     borderopacity="0.25"
     inkscape:showpageshadow="2"
     inkscape:pageopacity="0.0"
     inkscape:pagecheckerboard="0"
     inkscape:deskcolor="#d1d1d1"
     inkscape:document-units="px"
     inkscape:zoom="0.38738503"
     inkscape:cx="2010.9192"
     inkscape:cy="1051.925"
     inkscape:window-width="2152"
     inkscape:window-height="1212"
     inkscape:window-x="252"
     inkscape:window-y="42"
     inkscape:window-maximized="0"
     inkscape:current-layer="layer1" />
  <defs
     id="defs1" />
  <g
     inkscape:label="Layer 1"
     inkscape:groupmode="layer"
     id="layer1">
    <polygon
       class="st1"
       points="67.1,26.1 55.4,30 52.9,42.2 62.1,50.4 73.9,46.4 76.3,34.3 "
       id="polygon4"
       style="opacity:0.65;fill:none;stroke:#ffa300;stroke-width:2.15;stroke-miterlimit:10;stroke-opacity:1;enable-background:new"
       transform="matrix(13.757225,0,0,13.757225,2867.6483,-268.66333)" />
    <polygon
       class="st0"
       points="68.7,64.1 56.9,68 54.4,80.1 63.7,88.3 75.4,84.4 77.9,72.3 "
       id="polygon7"
       style="opacity:0.65;fill:none;stroke:#d6001c;stroke-width:2.15;stroke-miterlimit:10;stroke-opacity:1;enable-background:new"
       transform="matrix(13.757225,0,0,13.757225,2622.4143,-539.71149)" />
    <polygon
       class="st0"
       points="20.5,78.5 29.8,86.7 41.5,82.8 44,70.7 34.7,62.5 23,66.4 "
       id="polygon1"
       style="opacity:0.65;fill:none;stroke:#9c0534;stroke-width:2.15;stroke-miterlimit:10;stroke-opacity:1;enable-background:new"
       transform="matrix(13.757225,0,0,13.757225,2534.6463,-335.78001)" />
    <polygon
       class="st0"
       points="29.8,86.7 41.5,82.8 44,70.7 34.7,62.5 23,66.4 20.5,78.5 "
       id="polygon1-0"
       style="opacity:0.65;fill:none;stroke:#9c0534;stroke-width:2.15;stroke-miterlimit:10;stroke-opacity:1;enable-background:new"
       transform="matrix(13.757225,0,0,13.757225,3224.248,-144.22119)" />
    <polygon
       class="st0"
       points="23,66.4 20.5,78.5 29.8,86.7 41.5,82.8 44,70.7 34.7,62.5 "
       id="polygon1-2"
       style="opacity:0.65;fill:none;stroke:#f87171;stroke-width:2.15;stroke-miterlimit:10;stroke-opacity:1;enable-background:new"
       transform="matrix(13.757225,0,0,13.757225,3000.1075,106.66415)" />
    <polygon
       class="st0"
       points="29.8,86.7 41.5,82.8 44,70.7 34.7,62.5 23,66.4 20.5,78.5 "
       id="polygon1-2-0"
       style="opacity:0.65;fill:none;stroke:#9c0534;stroke-width:2.15;stroke-miterlimit:10;stroke-opacity:1;enable-background:new"
       transform="matrix(13.757225,0,0,13.757225,3108.1265,428.68316)" />
    <polygon
       class="st0"
       points="65.4,87.7 67.9,75.6 58.7,67.4 47,71.3 44.5,83.4 53.7,91.6 "
       id="polygon2"
       style="opacity:0.65;fill:none;stroke:#ffa300;stroke-width:2.15;stroke-miterlimit:10;stroke-opacity:1;enable-background:new"
       transform="matrix(13.757225,0,0,13.757225,2534.6463,-335.78001)" />
    <polygon
       class="st0"
       points="36.8,60.3 46,68.5 57.7,64.7 60.2,52.6 50.9,44.4 39.2,48.2 "
       id="polygon3"
       style="opacity:0.65;fill:none;stroke:#d6001c;stroke-width:2.15;stroke-miterlimit:10;stroke-opacity:1;enable-background:new"
       transform="matrix(13.757225,0,0,13.757225,2534.6463,-335.78001)" />
    <polygon
       class="st0"
       points="29,37.3 38.2,45.5 49.9,41.5 52.4,29.4 43.2,21.2 31.5,25.1 "
       id="polygon5"
       style="opacity:0.65;fill:none;stroke:#d6001c;stroke-width:2.15;stroke-miterlimit:10;stroke-opacity:1;enable-background:new"
       transform="matrix(13.757225,0,0,13.757225,2534.6463,-335.78001)" />
    <polygon
       class="st0"
       points="23,66.4 20.5,78.5 29.8,86.7 41.5,82.8 44,70.7 34.7,62.5 "
       id="polygon1-8"
       style="opacity:0.65;fill:none;stroke:#9c0534;stroke-width:2.15;stroke-miterlimit:10;stroke-opacity:1;enable-background:new"
       transform="matrix(13.757225,0,0,13.757225,1696.0987,672.13154)" />
    <polygon
       class="st1"
       points="15.3,43.4 12.9,55.5 22.1,63.7 33.8,59.8 36.3,47.7 27.1,39.5 "
       id="polygon6"
       style="opacity:0.65;fill:none;stroke:#d6001c;stroke-width:2.15;stroke-miterlimit:10;stroke-opacity:1;enable-background:new"
       transform="matrix(13.757225,0,0,13.757225,1695.6877,670.97034)" />
    <polygon
       class="st1"
       points="40.6,86.3 38.1,98.4 47.3,106.6 59.1,102.7 61.6,90.6 52.3,82.4 "
       id="polygon8"
       style="opacity:0.65;fill:none;stroke:#ffa300;stroke-width:2.15;stroke-miterlimit:10;stroke-opacity:1;enable-background:new"
       transform="matrix(13.757225,0,0,13.757225,1125.1959,330.22404)" />
    <polygon
       class="st0"
       points="23,66.4 20.5,78.5 29.8,86.7 41.5,82.8 44,70.7 34.7,62.5 "
       id="polygon1-8-2"
       style="opacity:0.65;fill:none;stroke:#d6001c;stroke-width:2.15;stroke-miterlimit:10;stroke-opacity:1;enable-background:new"
       transform="matrix(13.757225,0,0,13.757225,86.7877,-563.1885)" />
    <polygon
       class="st1"
       points="15.3,43.4 12.9,55.5 22.1,63.7 33.8,59.8 36.3,47.7 27.1,39.5 "
       id="polygon6-2"
       style="opacity:0.65;fill:none;stroke:#ffa300;stroke-width:2.15;stroke-miterlimit:10;stroke-opacity:1;enable-background:new"
       transform="matrix(13.757225,0,0,13.757225,86.3767,-564.3497)" />
    <polygon
       class="st1"
       points="40.6,86.3 38.1,98.4 47.3,106.6 59.1,102.7 61.6,90.6 52.3,82.4 "
       id="polygon8-7"
       style="opacity:0.65;fill:none;stroke:#ffa300;stroke-width:2.15;stroke-miterlimit:10;stroke-opacity:1;enable-background:new"
       transform="matrix(13.757225,0,0,13.757225,-484.1151,-905.096)" />
  </g>
</svg>
