<?xml version="1.0" encoding="UTF-8" standalone="no"?>
<!-- Created with Inkscape (http://www.inkscape.org/) -->

<svg
   width="3840"
   height="2160"
   viewBox="0 0 3840 2160"
   version="1.1"
   id="svg1"
   inkscape:version="1.3 (0e150ed, 2023-07-21)"
   sodipodi:docname="hero-purple.svg"
   inkscape:export-filename="hero-gold.svg"
   inkscape:export-xdpi="96"
   inkscape:export-ydpi="96"
   xmlns:inkscape="http://www.inkscape.org/namespaces/inkscape"
   xmlns:sodipodi="http://sodipodi.sourceforge.net/DTD/sodipodi-0.dtd"
   xmlns="http://www.w3.org/2000/svg"
   xmlns:svg="http://www.w3.org/2000/svg">
  <sodipodi:namedview
     id="namedview1"
     pagecolor="#ffffff"
     bordercolor="#000000"
     borderopacity="0.25"
     inkscape:showpageshadow="2"
     inkscape:pageopacity="0.0"
     inkscape:pagecheckerboard="0"
     inkscape:deskcolor="#d1d1d1"
     inkscape:document-units="px"
     inkscape:zoom="0.82596328"
     inkscape:cx="2811.263"
     inkscape:cy="1265.7948"
     inkscape:window-width="2208"
     inkscape:window-height="1212"
     inkscape:window-x="243"
     inkscape:window-y="53"
     inkscape:window-maximized="0"
     inkscape:current-layer="layer1" />
  <defs
     id="defs1" />
  <g
     inkscape:label="Layer 1"
     inkscape:groupmode="layer"
     id="layer1">
    <g
       id="g10"
       transform="matrix(1.0566203,0,0,1.0566203,-317.17661,-108.69794)">
      <polygon
         class="st1"
         points="73.9,46.4 76.3,34.3 67.1,26.1 55.4,30 52.9,42.2 62.1,50.4 "
         id="polygon4"
         style="opacity:0.65;fill:none;stroke:#ffa300;stroke-width:2.15;stroke-miterlimit:10;stroke-opacity:1;enable-background:new"
         transform="matrix(5.5919488,0,0,5.6799254,2900.5934,868.12446)" />
      <polygon
         class="st0"
         points="75.4,84.4 77.9,72.3 68.7,64.1 56.9,68 54.4,80.1 63.7,88.3 "
         id="polygon7"
         style="opacity:0.65;fill:none;stroke:#d6001c;stroke-width:2.15;stroke-miterlimit:10;stroke-opacity:1;enable-background:new"
         transform="matrix(5.5919488,0,0,5.6799254,2800.9123,756.21721)" />
      <polygon
         class="st0"
         points="34.7,62.5 23,66.4 20.5,78.5 29.8,86.7 41.5,82.8 44,70.7 "
         id="polygon1"
         style="opacity:0.65;fill:none;stroke:#fca5a5;stroke-width:2.15;stroke-miterlimit:10;stroke-opacity:1;enable-background:new"
         transform="matrix(5.5919488,0,0,5.6799254,2765.2369,840.4141)" />
      <g
         id="g1"
         transform="matrix(0.4064736,0,0,0.41286854,1540.6308,925.18476)">
        <polygon
           class="st0"
           points="20.5,78.5 29.8,86.7 41.5,82.8 44,70.7 34.7,62.5 23,66.4 "
           id="polygon1-0"
           style="opacity:0.65;fill:none;stroke:#fca5a5;stroke-width:2.15;stroke-miterlimit:10;stroke-opacity:1;enable-background:new"
           transform="matrix(13.757225,0,0,13.757225,2786.482,44.1183)" />
        <polygon
           class="st0"
           points="34.7,62.5 23,66.4 20.5,78.5 29.8,86.7 41.5,82.8 44,70.7 "
           id="polygon1-2"
           style="opacity:0.65;fill:none;stroke:#f87171;stroke-width:2.15;stroke-miterlimit:10;stroke-opacity:1;enable-background:new"
           transform="matrix(13.757225,0,0,13.757225,2562.3415,295.00364)" />
        <polygon
           class="st0"
           points="20.5,78.5 29.8,86.7 41.5,82.8 44,70.7 34.7,62.5 23,66.4 "
           id="polygon1-2-0"
           style="opacity:0.65;fill:none;stroke:#fca5a5;stroke-width:2.15;stroke-miterlimit:10;stroke-opacity:1;enable-background:new"
           transform="matrix(13.757225,0,0,13.757225,2670.3605,617.02265)" />
      </g>
      <g
         id="g2"
         transform="matrix(-0.4064736,0,0,-0.41286854,3949.3089,1614.1819)">
        <polygon
           class="st0"
           points="23,66.4 20.5,78.5 29.8,86.7 41.5,82.8 44,70.7 34.7,62.5 "
           id="polygon1-0-3"
           style="opacity:0.65;fill:none;stroke:#fca5a5;stroke-width:2.15;stroke-miterlimit:10;stroke-opacity:1;enable-background:new"
           transform="matrix(13.757225,0,0,13.757225,2786.482,44.1183)" />
        <polygon
           class="st0"
           points="44,70.7 34.7,62.5 23,66.4 20.5,78.5 29.8,86.7 41.5,82.8 "
           id="polygon1-2-9"
           style="opacity:0.65;fill:none;stroke:#f87171;stroke-width:2.15;stroke-miterlimit:10;stroke-opacity:1;enable-background:new"
           transform="matrix(13.757225,0,0,13.757225,2562.3415,295.00364)" />
        <polygon
           class="st0"
           points="23,66.4 20.5,78.5 29.8,86.7 41.5,82.8 44,70.7 34.7,62.5 "
           id="polygon1-2-0-0"
           style="opacity:0.65;fill:none;stroke:#fca5a5;stroke-width:2.15;stroke-miterlimit:10;stroke-opacity:1;enable-background:new"
           transform="matrix(13.757225,0,0,13.757225,2670.3605,617.02265)" />
      </g>
      <polygon
         class="st0"
         points="44.5,83.4 53.7,91.6 65.4,87.7 67.9,75.6 58.7,67.4 47,71.3 "
         id="polygon2"
         style="opacity:0.65;fill:none;stroke:#ffa300;stroke-width:2.15;stroke-miterlimit:10;stroke-opacity:1;enable-background:new"
         transform="matrix(5.5919488,0,0,5.6799254,2765.2369,840.4141)" />
      <polygon
         class="st0"
         points="50.9,44.4 39.2,48.2 36.8,60.3 46,68.5 57.7,64.7 60.2,52.6 "
         id="polygon3"
         style="opacity:0.65;fill:none;stroke:#d6001c;stroke-width:2.15;stroke-miterlimit:10;stroke-opacity:1;enable-background:new"
         transform="matrix(5.5919488,0,0,5.6799254,2765.2369,840.4141)" />
      <polygon
         class="st0"
         points="43.2,21.2 31.5,25.1 29,37.3 38.2,45.5 49.9,41.5 52.4,29.4 "
         id="polygon5"
         style="opacity:0.65;fill:none;stroke:#d6001c;stroke-width:2.15;stroke-miterlimit:10;stroke-opacity:1;enable-background:new"
         transform="matrix(5.5919488,0,0,5.6799254,2765.2369,840.4141)" />
    </g>
  </g>
</svg>
