<svg xmlns="http://www.w3.org/2000/svg" xmlns:xlink="http://www.w3.org/1999/xlink" version="1.1" x="0px" y="0px" viewBox="0 0 64 64" enable-background="new 0 0 64 64" xml:space="preserve">
<g id="gdpr-outline-bot_x5F_s1g1_x5F_s2g1_x5F_s3g1_x5F_s4g2_x5F_background">
	
		<path fill="#00000000" stroke="#FFFFFFFF" stroke-width="1.5" stroke-linecap="round" stroke-linejoin="round" stroke-miterlimit="10" d="   M42.24,42.501c2.217-1.979,3.484-4.809,3.484-7.78V20.416c0-1.528-1.134-2.891-2.829-3.4l-9.406-2.827   c-0.971-0.292-2.007-0.292-2.978,0l-9.406,2.827c-1.696,0.51-2.829,1.872-2.829,3.4l0,14.304c0,2.971,1.268,5.802,3.484,7.78   l7.09,6.328c1.795,1.602,4.506,1.602,6.3,0L42.24,42.501z"/>
</g>
<g id="gdpr-outline-top_x5F_s1g1_x5F_s2g2_x5F_s3g1_x5F_s4g1_x5F_background">
	
		<line fill="none" stroke="#FFFFFFFF" stroke-width="1.5" stroke-linecap="round" stroke-linejoin="round" stroke-miterlimit="10" x1="29.932" y1="28.504" x2="34.077" y2="35.5"/>
	
		<polyline fill="none" stroke="#FFFFFFFF" stroke-width="1.5" stroke-linecap="round" stroke-linejoin="round" stroke-miterlimit="10" points="   26.555,28.504 23.445,32.002 26.555,35.5  "/>
	
		<polyline fill="none" stroke="#FFFFFFFF" stroke-width="1.5" stroke-linecap="round" stroke-linejoin="round" stroke-miterlimit="10" points="   37.25,28.504 40.359,32.002 37.25,35.5  "/>
</g>
</svg>